<svg width="120" height="118" viewBox="0 0 120 118" fill="none" xmlns="http://www.w3.org/2000/svg">
<path d="M120 46.7417C120 20.9698 99.0396 0 73.2802 0C71.4938 0 69.7106 0.103238 67.9337 0.309714C66.1536 0.513062 64.3954 0.819646 62.6529 1.22634C60.9104 1.63616 59.1991 2.14297 57.516 2.74675C55.8329 3.35054 54.1874 4.05131 52.5856 4.84593C50.9808 5.63742 49.4291 6.52276 47.9274 7.4957C46.4258 8.46551 44.9836 9.52292 43.6039 10.6617C42.2243 11.7973 40.9135 13.0111 39.6715 14.3031C38.4295 15.5921 37.2689 16.9467 36.1833 18.3701C30.9964 21.4578 26.5697 25.3965 22.9032 30.1893C21.1669 31.2216 19.5026 32.3573 17.9133 33.6024C16.3241 34.8475 14.8225 36.1927 13.4084 37.6318C11.9944 39.0709 10.6773 40.5975 9.46035 42.2087C8.24339 43.8198 7.1328 45.4998 6.13483 47.2548C5.13374 49.0099 4.25152 50.8212 3.48819 52.6889C2.72173 54.5597 2.0804 56.468 1.56421 58.4201C1.04489 60.3723 0.656969 62.3494 0.394181 64.3516C0.134522 66.3538 0.00312902 68.3654 0 70.3864C0 96.1583 20.9604 117.125 46.7198 117.125C48.5093 117.125 50.2894 117.022 52.0695 116.818C53.8464 116.612 55.6046 116.305 57.3471 115.899C59.0896 115.492 60.8009 114.985 62.484 114.378C64.1671 113.774 65.8126 113.077 67.4144 112.282C69.0192 111.488 70.5709 110.605 72.0726 109.632C73.5742 108.659 75.0164 107.605 76.3961 106.466C77.7757 105.328 79.0865 104.114 80.3285 102.825C81.5705 101.536 82.7311 100.178 83.8167 98.7549C89.0005 95.6671 93.4272 91.7285 97.0968 86.9357C98.8331 85.9065 100.497 84.7677 102.087 83.5226C103.676 82.2775 105.178 80.9354 106.592 79.4932C108.006 78.0541 109.323 76.5275 110.54 74.9194C111.757 73.3083 112.867 71.6252 113.865 69.8702C114.866 68.1151 115.748 66.3038 116.512 64.4361C117.278 62.5684 117.92 60.657 118.436 58.7048C118.955 56.7527 119.343 54.7755 119.606 52.7733C119.865 50.7712 119.997 48.7596 120 46.7417ZM34.4126 20.8384C33.252 22.5778 32.2134 24.386 31.2936 26.2662C29.329 26.9576 27.4175 27.7741 25.5592 28.722C28.1683 25.7094 31.1215 23.0815 34.4126 20.8384ZM73.2676 92.3416C48.1339 92.3416 27.6834 71.8817 27.6834 46.7355C27.6834 43.3537 28.0557 40.0125 28.8034 36.712C29.5479 33.4115 30.6491 30.2362 32.107 27.1829C36.8465 25.5748 41.7175 24.774 46.7198 24.7802C71.8505 24.7802 92.3041 45.237 92.3041 70.3864C92.3072 73.7682 91.9349 77.1125 91.1904 80.4129C90.4458 83.7134 89.3477 86.8919 87.8899 89.9453C83.1535 91.5533 78.2825 92.351 73.2802 92.3479L73.2676 92.3416ZM87.1641 91.3624C85.9722 93.6556 84.5956 95.8298 83.0346 97.8883C79.5433 99.9468 75.8423 101.508 71.9287 102.575C68.0181 103.638 64.0357 104.17 59.9844 104.164C34.8475 104.164 14.4001 83.7072 14.4001 58.5578C14.397 56.0926 14.5941 53.6399 14.9914 51.206C15.3887 48.7721 15.98 46.3851 16.7683 44.045C17.5536 41.7081 18.5234 39.4494 19.6778 37.2689C20.8353 35.0884 22.1586 33.0174 23.6509 31.0527C25.8689 29.745 28.184 28.6344 30.5928 27.7209C27.8899 33.7713 26.5415 40.1064 26.5447 46.7324C26.5447 72.5043 47.5051 93.4741 73.2645 93.4741C78.0103 93.4804 82.6498 92.7765 87.1797 91.3656L87.1641 91.3624ZM93.4209 70.3801C93.4209 44.6082 72.4605 23.6384 46.7011 23.6384C41.9615 23.6352 37.3315 24.3391 32.8046 25.75C33.9997 23.46 35.3762 21.2827 36.9341 19.2242C40.4255 17.1657 44.1295 15.6046 48.04 14.5409C51.9506 13.4741 55.9331 12.9454 59.9844 12.9517C85.1181 12.9517 105.569 33.4084 105.569 58.5547C105.572 61.0199 105.375 63.4725 104.977 65.9065C104.58 68.3435 103.989 70.7305 103.204 73.0674C102.415 75.4075 101.445 77.6662 100.291 79.8467C99.1366 82.0272 97.8101 84.0982 96.3178 86.0629C94.0998 87.3706 91.7848 88.478 89.3759 89.3915C92.082 83.3474 93.4366 77.0124 93.4366 70.3864L93.4209 70.3801ZM46.7198 115.989C21.583 115.989 1.13562 95.5295 1.13562 70.3864C1.13562 68.5312 1.24824 66.6854 1.47349 64.8428C1.69873 63.0033 2.0366 61.1857 2.48397 59.3868C2.93133 57.5849 3.48819 55.8204 4.14829 54.0904C4.81151 52.3573 5.57798 50.6742 6.44768 49.0349C7.31425 47.3987 8.2778 45.8189 9.33834 44.2985C10.3989 42.778 11.5501 41.3296 12.7859 39.9499C14.0247 38.5703 15.3418 37.2689 16.7371 36.0519C18.1323 34.8318 19.5996 33.7025 21.1325 32.6607C18.5672 36.493 16.6182 40.6132 15.2792 45.0274C13.9434 49.4384 13.277 53.9496 13.2833 58.5609C13.2833 84.3329 34.2406 105.303 60 105.303C63.679 105.306 67.3049 104.88 70.8838 104.02C74.4596 103.163 77.8852 101.899 81.1638 100.225C80.097 101.458 78.9707 102.631 77.7788 103.745C76.59 104.855 75.3418 105.9 74.0404 106.879C72.7358 107.859 71.3843 108.763 69.9859 109.595C68.5844 110.43 67.1453 111.184 65.6624 111.863C64.1796 112.542 62.6685 113.136 61.12 113.652C59.5745 114.169 58.0072 114.6 56.4148 114.948C54.8225 115.295 53.2145 115.555 51.5939 115.73C49.9734 115.905 48.3498 115.989 46.7198 115.989ZM85.5717 96.2834C86.7355 94.5472 87.7741 92.7358 88.6908 90.8556C90.6648 90.1674 92.5794 89.3509 94.4408 88.4029C91.8317 91.4156 88.8785 94.0404 85.5874 96.2834H85.5717ZM98.855 84.4643C101.417 80.6319 103.369 76.5087 104.705 72.0976C106.041 67.6834 106.707 63.1722 106.704 58.5609C106.704 32.789 85.7469 11.8254 59.9844 11.8254C56.3085 11.8192 52.6795 12.2446 49.1037 13.105C45.5248 13.9621 42.0992 15.226 38.8237 16.8997C39.8874 15.6671 41.0167 14.494 42.2087 13.3803C43.4006 12.2665 44.6488 11.2216 45.9503 10.2425C47.2548 9.26326 48.6094 8.35914 50.0078 7.52385C51.4094 6.69169 52.8516 5.93774 54.3344 5.25888C55.8173 4.58001 57.3315 3.98248 58.8769 3.46942C60.4223 2.95323 61.9928 2.52151 63.5852 2.17425C65.1775 1.83013 66.7855 1.56734 68.4061 1.39528C70.0266 1.22008 71.6502 1.13562 73.2802 1.13562C98.4108 1.13562 118.864 21.5924 118.864 46.7417C118.864 48.5938 118.752 50.4427 118.527 52.2822C118.301 54.1217 117.963 55.9424 117.516 57.7413C117.069 59.5401 116.512 61.3046 115.852 63.0377C115.188 64.7677 114.422 66.4508 113.555 68.0901C112.686 69.7263 111.722 71.3061 110.662 72.8265C109.601 74.3469 108.45 75.7954 107.214 77.1782C105.975 78.5578 104.658 79.8561 103.263 81.0762C101.868 82.2931 100.4 83.4225 98.8675 84.4643H98.855Z" fill="#191919"/>
</svg>
