<svg width="42" height="31" viewBox="0 0 42 31" fill="none" xmlns="http://www.w3.org/2000/svg">
<path d="M1.26428 15.6299C1.26428 14.8245 1.93303 14.1589 2.80068 14.0536L3.04189 14.0391L38.594 14.0391C39.5757 14.0391 40.3716 14.7513 40.3716 15.6299C40.3716 16.4353 39.7028 17.1008 38.8352 17.2062L38.594 17.2207L3.04189 17.2207C2.06014 17.2207 1.26428 16.5085 1.26428 15.6299Z" fill="black" stroke="black" stroke-width="2"/>
<path d="M23.0021 3.97941C22.3064 3.3595 22.304 2.35225 22.9967 1.72966C23.6264 1.16367 24.6139 1.11042 25.3109 1.57117L25.5106 1.72481L39.85 14.5023C40.4843 15.0675 40.542 15.9544 40.023 16.5781L39.8501 16.7568L25.5107 29.5364C24.8151 30.1564 23.6896 30.1543 22.9968 29.5317C22.367 28.9658 22.3117 28.0819 22.8295 27.4601L23.002 27.282L36.0758 15.6289L23.0021 3.97941Z" fill="black" stroke="black" stroke-width="2"/>
</svg>
