<svg width="51" height="46" viewBox="0 0 51 46" fill="none" xmlns="http://www.w3.org/2000/svg">
<path d="M11.9907 35.004C11.3543 34.4345 11.3013 33.5407 11.8316 32.9172L11.9907 32.7543L37.1298 10.2567C37.824 9.63541 38.9495 9.63541 39.6437 10.2567C40.28 10.8261 40.3331 11.72 39.8028 12.3435L39.6437 12.5064L14.5046 35.004C13.8104 35.6253 12.6849 35.6253 11.9907 35.004Z" fill="#525298" stroke="#525298" stroke-width="2"/>
<path d="M18.1562 13.0097C17.1744 13.0116 16.3769 12.3009 16.3747 11.4223C16.3728 10.6236 17.029 9.96111 17.8859 9.84584L18.1485 9.82808L38.3838 9.78909C39.279 9.78736 40.0205 10.3779 40.1464 11.1474L40.1653 11.3832L40.1234 29.4938C40.1213 30.3724 39.3238 31.0831 38.3421 31.0813C37.4496 31.0796 36.7121 30.4896 36.5869 29.7223L36.5682 29.4872L36.6053 12.9741L18.1562 13.0097Z" fill="#525298" stroke="#525298" stroke-width="2"/>
</svg>
