<svg width="27" height="24" viewBox="0 0 27 24" fill="none" xmlns="http://www.w3.org/2000/svg">
<path d="M1.5 0H25.5C25.8536 0 26.1928 0.140476 26.4428 0.390524C26.6929 0.640573 26.8333 0.979711 26.8333 1.33333V22.6667C26.8333 23.0203 26.6929 23.3594 26.4428 23.6095C26.1928 23.8595 25.8536 24 25.5 24H1.5C1.14638 24 0.807237 23.8595 0.557188 23.6095C0.30714 23.3594 0.166664 23.0203 0.166664 22.6667V1.33333C0.166664 0.979711 0.30714 0.640573 0.557188 0.390524C0.807237 0.140476 1.14638 0 1.5 0V0ZM24.1667 12H2.83333V21.3333H24.1667V12ZM24.1667 6.66667V2.66667H2.83333V6.66667H24.1667Z" fill="#525298"/>
</svg>
