<svg width="29" height="29" viewBox="0 0 29 29" fill="none" xmlns="http://www.w3.org/2000/svg">
<path d="M4.83334 6.55198L0.509338 2.22932L2.39601 0.342651L6.71867 4.66665H27.0413C27.2492 4.66664 27.4541 4.7152 27.6398 4.80847C27.8255 4.90174 27.9869 5.03714 28.111 5.20385C28.2351 5.37055 28.3185 5.56396 28.3545 5.76863C28.3906 5.9733 28.3783 6.18357 28.3187 6.38265L25.1187 17.0493C25.0363 17.3241 24.8676 17.565 24.6375 17.7363C24.4074 17.9075 24.1282 18 23.8413 18H7.50001V20.6667H22.1667V23.3333H6.16667C5.81305 23.3333 5.47391 23.1928 5.22386 22.9428C4.97381 22.6927 4.83334 22.3536 4.83334 22V6.55198ZM7.50001 7.33332V15.3333H22.8493L25.2493 7.33332H7.50001ZM6.83334 28.6666C6.30291 28.6666 5.7942 28.4559 5.41912 28.0809C5.04405 27.7058 4.83334 27.1971 4.83334 26.6667C4.83334 26.1362 5.04405 25.6275 5.41912 25.2524C5.7942 24.8774 6.30291 24.6667 6.83334 24.6667C7.36377 24.6667 7.87248 24.8774 8.24755 25.2524C8.62263 25.6275 8.83334 26.1362 8.83334 26.6667C8.83334 27.1971 8.62263 27.7058 8.24755 28.0809C7.87248 28.4559 7.36377 28.6666 6.83334 28.6666ZM22.8333 28.6666C22.3029 28.6666 21.7942 28.4559 21.4191 28.0809C21.0441 27.7058 20.8333 27.1971 20.8333 26.6667C20.8333 26.1362 21.0441 25.6275 21.4191 25.2524C21.7942 24.8774 22.3029 24.6667 22.8333 24.6667C23.3638 24.6667 23.8725 24.8774 24.2476 25.2524C24.6226 25.6275 24.8333 26.1362 24.8333 26.6667C24.8333 27.1971 24.6226 27.7058 24.2476 28.0809C23.8725 28.4559 23.3638 28.6666 22.8333 28.6666Z" fill="#525298"/>
</svg>
