<svg width="27" height="28" viewBox="0 0 27 28" fill="none" xmlns="http://www.w3.org/2000/svg">
<path d="M16.8333 0.666061C17.6209 0.665792 18.3956 0.864828 19.0855 1.24463C19.7754 1.62444 20.358 2.17266 20.7789 2.83824C21.1999 3.50382 21.4456 4.2651 21.4931 5.0512C21.5406 5.83729 21.3884 6.62263 21.0507 7.33406L25.5 7.33273C25.8536 7.33273 26.1927 7.4732 26.4428 7.72325C26.6928 7.9733 26.8333 8.31244 26.8333 8.66606V13.9994C26.8333 14.353 26.6928 14.6922 26.4428 14.9422C26.1927 15.1923 25.8536 15.3327 25.5 15.3327H24.1667V25.9994C24.1667 26.353 24.0262 26.6922 23.7761 26.9422C23.5261 27.1923 23.1869 27.3327 22.8333 27.3327H4.16666C3.81303 27.3327 3.4739 27.1923 3.22385 26.9422C2.9738 26.6922 2.83332 26.353 2.83332 25.9994V15.3327H1.49999C1.14637 15.3327 0.807229 15.1923 0.557181 14.9422C0.307132 14.6922 0.166656 14.353 0.166656 13.9994V8.66606C0.166656 8.31244 0.307132 7.9733 0.557181 7.72325C0.807229 7.4732 1.14637 7.33273 1.49999 7.33273L5.94932 7.33406C5.47433 6.33629 5.36882 5.20233 5.65159 4.13406C5.93435 3.06579 6.58704 2.13252 7.49345 1.5004C8.39987 0.868277 9.50119 0.578322 10.6014 0.682152C11.7015 0.785981 12.7292 1.27686 13.5013 2.06739C13.9347 1.62276 14.4529 1.26963 15.0253 1.02892C15.5976 0.788215 16.2124 0.664824 16.8333 0.666061ZM21.5 15.3327H5.49999V24.6661H21.5V15.3327ZM24.1667 9.99939H2.83332V12.6661H24.1667V9.99939ZM10.1667 3.33273C9.65303 3.33298 9.1592 3.53083 8.78747 3.88527C8.41575 4.23972 8.19464 4.72359 8.16996 5.23661C8.14527 5.74964 8.31891 6.2525 8.65489 6.641C8.99087 7.02949 9.46343 7.27383 9.97466 7.32339L10.1667 7.33273H12.1667V5.33273C12.1666 4.83555 11.9814 4.35621 11.6472 3.98817C11.3129 3.62013 10.8535 3.38979 10.3587 3.34206L10.1667 3.33273ZM16.8333 3.33273L16.6413 3.34206C16.1792 3.38634 15.7468 3.59003 15.4184 3.91821C15.09 4.24638 14.8859 4.6786 14.8413 5.14073L14.8333 5.33273V7.33273H16.8333L17.0253 7.32339C17.52 7.27543 17.9791 7.04499 18.3132 6.67698C18.6473 6.30896 18.8323 5.82975 18.8323 5.33273C18.8323 4.83571 18.6473 4.35649 18.3132 3.98848C17.9791 3.62046 17.52 3.39002 17.0253 3.34206L16.8333 3.33273Z" fill="#525298"/>
</svg>
