<svg width="50" height="50" viewBox="0 0 50 50" fill="none" xmlns="http://www.w3.org/2000/svg">
<path d="M25.0043 31.5565C29.2768 31.5565 32.7404 28.3946 32.7404 24.4941C32.7404 20.5936 29.2768 17.4316 25.0043 17.4316C20.7319 17.4316 17.2683 20.5936 17.2683 24.4941C17.2683 28.3946 20.7319 31.5565 25.0043 31.5565Z" fill="#525298"/>
<path d="M33.9243 36.006C31.5157 37.6186 28.5764 38.5779 25.4126 38.5779C21.3711 38.5779 17.6766 37.0062 15.023 34.4956C12.3083 31.9441 10.6345 28.4129 10.6345 24.4938C10.6345 20.6973 12.247 17.1252 15.023 14.5125C17.6766 11.9815 21.3711 10.4302 25.4126 10.4302C28.5968 10.4302 31.5361 11.3895 33.9447 13.0225C36.1287 14.5125 37.7413 16.37 38.9047 18.7581C39.3538 19.7175 39.66 20.7177 38.8639 21.6158C37.8025 22.7997 36.2308 21.7995 35.496 20.7381C35.2306 20.3503 34.9857 19.9216 34.7611 19.5134C34.6591 19.3297 34.557 19.1664 34.455 18.9827L34.4141 18.9214L34.3529 18.8398C33.6385 17.86 32.7812 17.064 31.781 16.37C31.7606 16.3496 31.7402 16.3292 31.7198 16.3087C29.944 15.1249 27.7803 14.4105 25.4126 14.4105C22.4121 14.4105 19.6973 15.5535 17.7378 17.411C15.8191 19.2276 14.6352 21.7383 14.6352 24.4938C14.6352 27.2698 15.8191 29.7805 17.7378 31.5971C19.6973 33.4342 22.4121 34.5772 25.4126 34.5772C27.7803 34.5772 29.944 33.8832 31.7198 32.6993C33.1894 31.6992 34.3325 30.4541 35.1286 28.8619C35.6797 27.8209 36.8023 26.3105 38.1903 26.8616C39.3334 27.3106 39.4558 28.8007 39.0884 29.8213C38.8231 30.5561 38.4148 31.2093 38.0066 31.8625C36.9248 33.5362 35.5572 34.8834 33.9243 36.006Z" fill="#525298"/>
<path d="M40.5376 44.5179C36.3532 47.3551 31.2299 49.0085 25.7187 49.0085C18.6563 49.0085 12.2674 46.2937 7.61356 41.9052C2.89846 37.4555 0 31.2911 0 24.494C0 17.8602 2.7964 11.6551 7.61356 7.10327C12.2674 2.71476 18.6563 0 25.7187 0C31.2503 0 36.3941 1.65335 40.5784 4.49057C44.3954 7.08286 47.1918 10.3487 49.2126 14.4923C49.9882 16.1661 50.5394 17.9215 49.1309 19.4728C47.2735 21.5343 44.5587 19.7993 43.2728 17.9623C42.8033 17.2887 42.4155 16.5335 42.0073 15.7987C41.8236 15.4925 41.6603 15.2067 41.4562 14.9005L41.3745 14.7781L41.2929 14.6556C40.0477 12.941 38.5373 11.553 36.8227 10.3283C36.7819 10.3079 36.7411 10.2671 36.7002 10.2467C33.6181 8.16468 29.8215 6.93998 25.7187 6.93998C20.4933 6.93998 15.7782 8.91991 12.3695 12.145C9.02197 15.3088 6.93998 19.6769 6.93998 24.494C6.93998 29.3112 9.02197 33.6793 12.3695 36.8431C15.7782 40.0682 20.4933 42.0685 25.7187 42.0685C29.8215 42.0685 33.6181 40.8438 36.7002 38.7618C39.2517 37.0268 41.2316 34.8836 42.6196 32.1076C43.5994 30.291 45.5385 27.6578 47.9471 28.6172C49.9474 29.3928 50.1515 31.9647 49.5188 33.7609C49.0697 35.0469 48.3553 36.2103 47.6409 37.333C45.763 40.211 43.3749 42.5992 40.5376 44.5179Z" fill="#525298"/>
</svg>
