<svg width="14" height="15" viewBox="0 0 14 15" fill="none" xmlns="http://www.w3.org/2000/svg">
<path d="M6 0.837891C9.312 0.837891 12 3.52589 12 6.83789C12 10.1499 9.312 12.8379 6 12.8379C2.688 12.8379 0 10.1499 0 6.83789C0 3.52589 2.688 0.837891 6 0.837891ZM6 11.5046C8.578 11.5046 10.6667 9.41589 10.6667 6.83789C10.6667 4.25922 8.578 2.17122 6 2.17122C3.42133 2.17122 1.33333 4.25922 1.33333 6.83789C1.33333 9.41589 3.42133 11.5046 6 11.5046ZM11.6567 11.5519L13.5427 13.4372L12.5993 14.3806L10.714 12.4946L11.6567 11.5519Z" fill="#7A7A7A"/>
</svg>
